<?xml version="1.0" encoding="UTF-8"?>
<svg version="1.1" viewBox="0 0 375.2 151.2" xml:space="preserve" xmlns="http://www.w3.org/2000/svg" xmlns:xlink="http://www.w3.org/1999/xlink"><defs><marker id="a" overflow="visible" markerHeight="1" markerWidth="1" orient="auto-start-reverse" preserveAspectRatio="xMidYMid" viewBox="0 0 1 1"><path transform="scale(.7)" d="m-2-4 11 4-11 4c2-2.33 2-5.66 0-8z" fill="context-stroke" fill-rule="evenodd"/></marker><pattern id="b" patternTransform="translate(-5 3) scale(.98)" xlink:href="#c"/><pattern id="c" width="18.1" height="18" patternUnits="userSpaceOnUse"><g fill="none" stroke="#e99" stroke-linecap="round" stroke-linejoin="round" stroke-width=".2">
<rect width="20" height="20" fill="#fff"/>
<rect width="18" height="18" stroke-width=".8"/>
<rect x="3.6" width="10.8" height="20"/>
<rect x="7.2" width="3.6" height="20"/>
<rect y="3.6" width="20" height="10.8"/>
<rect y="7.2" width="20" height="3.6"/>
</g></pattern></defs>

<g stroke="#e29e9e" stroke-width=".344"><rect width="375" height="151" fill="#fff"/><rect width="375" height="151" fill="url(#b)" opacity=".5"/></g>

<g fill="none" stroke="#000" stroke-width="1">
<path d="m-0.5597 48.83c3.131-1.019 2.708 10.09 5.194 3.276 0.1724-4.95 3.536-5.935 6.019-2.474 1.111 4.932 6.086-3.781 6.373 2.25 2.49 3.071 3.964-3.966 7.267-2.25 2.254 4.756 5.265-3.182 7.121 1.414 1.357-11.14 3.172-28.08 4.257-39.9 1.142 14.7 1.326 42.7 2.454 57.4 3.201-6.234-0.6394-19.35 3.806-15.7 2.951 2.285 3.092 6.886 7.204 4.81 1.418-2.453 2.96-5.327 6.425-4.81 0.9999 4.973 3.876 7.745 4.259 0.8533 0.9594-4.673 5.015 7.463 8.776-1.512 1.687-12.4 0.01232-28.07 2.149-40.54 2.775 14.82 1.105 40.4 3.806 55.19 1.592-3.011-0.05471-16.3 5.05-14.79 2.669 3.164 4.989 1.153 7.226 0.8017 1.396 6.324 3.632 0.8019 6.403 0 2.959-1.268 5.974 8.188 6.512 3.211 1.76-12.21 3.797-29.96 4.275-43.76 1.19 0.1295 0.7729 12.36 1.277 15.68 0.434 10.97 1.281 27.72 2.329 38.65 1.131-2.381 0.565-17.86 3.609-12.28 0.6137 5.467 4.609 4.69 6.06-1.509 4.068-3.493 4.568 1.779 6.403 4.009 1.45-0.828 2.766-7.081 6.125-2.252 3.037-1.376 4.724-3.052 7.067-0.248 1.682 4.062 5.675-0.4925 6.862-2.311 3.383-3.788 2.729 9.814 5.07 4.052 0.0358-3.714 2.306-8.747 5.352-4.052 2.318 4.779 5.099 1.298 7.52 2.966 1.271 6.544 2.084-2.141 5.307-2.165 2.995 1.581 5.797 7.059 6.914-2.302 1.414-9.543 3.329-31.11 3.913-40.76 0.131 18.75 0.5838 37.74 1.75 56.6 2.801-2.438 0.3321-15.26 5.05-14.34 1.647-3.735 5.119-2.337 4.821 2.405 2.994 5.154 1.124-6.104 4.81-5.612 2.975 1.027 4.871 6.143 8.006 2.405 2.3 3.129 4.793 4.171 5.211-1.538 1.25-8.511 2.683-30.2 3.27-38.77 2.779-1.331-0.0384 26.25 2.754 55.35 2.448-2.512 0.6321-15.36 4.81-16.65 3.411-3.112 5.435 3.636 8.819 3.207 2.552-0.6847 5.307-7.334 6.605-1.638 1.964 10.52 4.202 1.228 4.17-3.078 2.292-2.731 4.28 3.708 6.862 3.112 3.02-5.476 4.212 3.957 6.767 0.8962 1.536-4.402 5.1-1.582 7.652-0.8962 1.733-2.417 4.505-3.512 7.429 0.1536 2.122-2.785 1.252-11.53 2.093-15.68 1.449-6.241 1.591-35.2 2.029-25.25 1.187 13.34 1.919 42.62 2.842 55.92 2.198 3.612 2e-3 -15.73 3.256-16.75 2.829-4.541 5.268 1.861 8.017 2.405 3.678-4.605 3.629 1.825 6.973 1.044 1.327-3.682 5.02-2.514 7.447-1.044 1.062-3.968 5.912-1.472 5.047-5.56 1.088-11.18 1.162-24.31 2.68-35.38 1.061 0.1253 1.189 10.34 1.498 13.58 0.7829 11.77 1.032 30.36 1.46 42.15 1.416-3.425 2.076-12.1 2.956-17.2 1.578-4.752 5.6-0.8355 7.121 1.414 2.307-0.1333 5.421-3.597 6.414 1.603 2.546-0.2216 3.991-5.211 7.299-2.216 2.063 1.855 4.785-1.326 6.477-1.591 0.672-9.081 1.359-29.97 1.802-39.07 2.155 0.1164 1.12 20.39 1.838 23.72 0.6811 8.05 1.762 24.62 2.171 32.69 2.026-4.905 0.3806-16.12 5.118-16.31 3.408-1.453 5.949 0.84 5.855 4.568 2.57 2.449 3.029-8.163 6.468-2.597 1.817 1.204 4.668-3.785 6.919-0.05071 1.16 1.583 2.307 2.147 4.251 1.846"/>
<path d="m-0.3087 124.2c4.389-0.3636 9.131-0.5218 12.88-0.8101 1.432-3.183 5.689-5.93 7.261-1.592 1.091 1.428 6.121 1.423 6.949 0.1103 1.931-12.21 1.024-27.91 4.123-39.91 2.199 16.75 0.3442 39.34 3.256 56.03 0.6278-4.287-0.0016-11.43 2.154-15.34 5.343-0.4285 12.45 2.592 15.99-2.203 3.018-0.7606 3.946-5.751 7.253-5.814 3.558 2.47 3.487 8.999 8.83 8.017 3.068 0.7658 5.485-1.052 8.006 0.753 4.245-0.3968 9.711 0.5373 12.39-3.064 2.062-4.531 5.046 1.405 7.421 2.068 3.735 1.408 7.076-0.3054 6.394-4.263 1.379-11.99-1.285-25.65 2.667-37.18 1.932 16.19 1.748 39.79 3.01 55.84 1.702 1.463-0.2725-15.48 4.206-14.15 3.346 0.0688 6.704 0.1662 9.62-0.8017 3.079-0.889 5.613-3.093 8.017-5.612 2.54-2.187 5.863-2.216 7.215 1.603 0.4741 4.493 4.816 4.243 7.204 4.81 2.771-1.103 4.385-0.0199 7.226 0 2.229-0.4286 5.605-0.4214 8.006-0.8017 3.093 0.6068 4.917-5.737 8.028-2.405 1.062 3.551 5.463 3.576 7.215 2.405 2.292-2.573 0.519-8.887 1.987-12.76 1.31-7.943 2.068-19.86 2.775-27.89 1.173 11.46 0.4822 26.77 1.858 38.17 0.7349 4.715 0.152 13.6 0.8953 17.26 2.558-3.494 1.428-12.91 3.709-13.98 2.54-1.316 4.724-0.3921 8.006-0.8017 4.106 0.292 6.843-2.723 9.631-5.612 2.094-1.653 6.098-2.718 7.215 0.8017 0.5367 4.652 4.997 6.853 8.819 6.316 3.082 0.5072 4.449 0.4576 7.504-0.251 4.715 0.6357 11.01 1.673 10.94-4.462 3.857-1.641 4.036 3.529 7.215 3.207 4.593 1.344 5.697-2.337 5.178-6.325 0.7052-10.45 1.812-23.67 2.539-34.12 1.881 6.824 0.5437 13.44 1.485 18.6 0.3006 12.09 1.519 25.18 1.972 37.27 3.32-7.158 0.5973-12.3 3.256-15.43 5.343-0.4285 11.7 1.588 15.23-3.207 3.027-0.554 5.067-5.645 8.006-4.009 2.88 2.558 3.82 8.53 8.83 7.215h16.84c2.565-0.8565 4.491-6.439 7.215-2.405 1.608 1.997 4.117 2.986 7.215 2.405 3.408-3.297 1.033-9.095 1.974-13.46 0.2024-9.991 0.5491-20.07 2.836-29.83 1.363 18.68 1.462 40.2 2.907 58.88 1.75-4.012 1.081-11.45 2.462-15.35 3.706-0.6287 8.06 0.3065 11.47-1.044 3.198-0.3244 5.302-3.292 7.774-5.369 2.632-2.591 5.865-1.796 7.215 1.92 1.04 3.206 3.474 4.402 6.656 4.251 3.203 0.317 5.397-0.7035 8.006 0h0.011"/>
</g>
<text transform="translate(-478.4 -298.9)" x="487" y="398" style="inline-size:37.8819" xml:space="preserve"><tspan x="487" y="398">I</tspan></text><text transform="translate(-478.4 -382.7)" x="487" y="398" style="inline-size:37.8819" xml:space="preserve"><tspan x="487" y="398">I</tspan></text>

<g fill="none" stroke-width="2"><path d="m134.2 15.26 4.26 15.26" marker-end="url(#a)" stroke="#800"/><path d="m153.3 85.55 4.97 13.84" marker-end="url(#a)" stroke="#808"/>
</g>
</svg>
